<?xml version="1.0" encoding="UTF-8"?>
<svg viewBox="0 0 1024 1024" xmlns="http://www.w3.org/2000/svg">
  <defs>
    <linearGradient id="background" x1="96" y1="70" x2="930" y2="956" gradientUnits="userSpaceOnUse">
      <stop offset="0" stop-color="#55216f"/><stop offset="0.54" stop-color="#24103e"/><stop offset="1" stop-color="#09040f"/>
    </linearGradient>
    <linearGradient id="stone" x1="330" y1="238" x2="690" y2="824" gradientUnits="userSpaceOnUse">
      <stop offset="0" stop-color="#f8f0fa"/><stop offset="0.55" stop-color="#ddcce1"/><stop offset="1" stop-color="#aa91af"/>
    </linearGradient>
    <linearGradient id="stone-edge" x1="512" y1="366" x2="512" y2="752" gradientUnits="userSpaceOnUse">
      <stop offset="0" stop-color="#faf2fc"/><stop offset="1" stop-color="#c2acc7"/>
    </linearGradient>
  </defs>
  <rect width="1024" height="1024" fill="url(#background)"/>
  <circle cx="850" cy="110" r="330" fill="#9146bd" opacity="0.15"/>
  <circle cx="118" cy="924" r="390" fill="#030106" opacity="0.3"/>
  <g transform="translate(0 18)" fill="#030106" opacity="0.62">
    <rect x="218" y="224" width="588" height="86" rx="22"/><path d="M252 310H772L742 370H282Z"/>
    <rect x="290" y="370" width="444" height="54" rx="18"/><path d="M328 424H696L682 620H342Z"/>
    <rect x="300" y="596" width="424" height="66" rx="30"/><rect x="258" y="652" width="508" height="64" rx="18"/>
    <rect x="218" y="706" width="588" height="84" rx="20"/>
  </g>
  <g id="column">
    <rect x="218" y="224" width="588" height="86" rx="22" fill="url(#stone)"/>
    <rect x="242" y="286" width="540" height="22" rx="11" fill="#fb7185"/>
    <path d="M252 310H772L742 370H282Z" fill="url(#stone)"/><path d="M276 336H748L736 360H288Z" fill="#a38ba8"/>
    <rect x="290" y="370" width="444" height="54" rx="18" fill="url(#stone-edge)"/>
    <rect x="306" y="374" width="412" height="12" rx="6" fill="#fb7185"/>
    <path d="M328 424H696L682 620H342Z" fill="url(#stone-edge)"/>
    <g fill="#917997">
      <path d="M378 452H426L422 594H382Z"/><path d="M452 452H496L494 594H454Z"/>
      <path d="M528 452H572L570 594H530Z"/><path d="M598 452H646L642 594H602Z"/>
    </g>
    <g fill="#faf2fc" opacity="0.42">
      <path d="M378 452H390L394 594H382Z"/><path d="M452 452H464L466 594H454Z"/>
      <path d="M528 452H540L540 594H530Z"/><path d="M598 452H610L614 594H602Z"/>
    </g>
    <rect x="300" y="596" width="424" height="66" rx="30" fill="url(#stone)"/>
    <rect x="322" y="604" width="380" height="12" rx="6" fill="#fb7185"/>
    <rect x="258" y="652" width="508" height="64" rx="18" fill="url(#stone-edge)"/>
    <rect x="218" y="706" width="588" height="84" rx="20" fill="url(#stone)"/>
    <path d="M244 762H780" stroke="#fb7185" stroke-width="12" stroke-linecap="round"/>
  </g>
</svg>
